<svg version="1.1" id="icons " width="100" height="140" xmlns="http://www.w3.org/2000/svg" x="0" y="0" viewBox="0 0 128 128" style="enable-background:new 0 0 128 128" xml:space="preserve"><style>.st0,.st1{display:none;fill:#191919}.st1,.st3{fill-rule:evenodd;clip-rule:evenodd}.st3,.st4{display:inline;fill:#191919}</style><g id="row1"><path id="nav:1_2_" d="M64 127C28.7 127 0 98.7 0 64S28.7 1 64 1s64 28.2 64 63-28.7 63-64 63zm0-116.8C33.8 10.2 9.3 34.3 9.3 64s24.5 53.8 54.7 53.8 54.7-24.1 54.7-53.8S94.2 10.2 64 10.2zM52.8 53 29.9 97.5 75.2 75l22.9-44.5L52.8 53zM64 69.5c-3.1 0-5.6-2.4-5.6-5.5 0-3 2.5-5.5 5.6-5.5s5.6 2.4 5.6 5.5c0 3-2.5 5.5-5.6 5.5z" style="fill:white"/></g></svg>