<?xml version="1.0" encoding="iso-8859-1"?>
<!-- Uploaded to: SVG Repo, www.svgrepo.com, Generator: SVG Repo Mixer Tools -->
<svg version="1.1" id="Layer_1" xmlns="http://www.w3.org/2000/svg" xmlns:xlink="http://www.w3.org/1999/xlink" 
	 viewBox="0 0 512 512" xml:space="preserve">
<rect x="59.324" y="8.018" style="fill:#999999;" width="85.511" height="145.369"/>
<rect x="59.324" y="8.018" style="fill:#808080;" width="29.929" height="145.369"/>
<rect x="42.223" y="8.018" style="fill:#E5E5E5;" width="119.716" height="34.205"/>
<polygon style="fill:#6DDAE1;" points="55.049,503.984 55.049,196.143 8.018,196.143 256.001,8.018 503.984,196.143 
	452.677,196.143 452.677,503.984 "/>
<polygon style="fill:#4FC4D3;" points="8.018,196.143 55.049,196.143 55.049,503.984 89.788,503.984 89.788,134.11 "/>
<path style="fill:#C4DF64;" d="M157.366,463.462l-25.698-25.698c-6.262-6.262-6.262-16.413,0-22.674l79.361-79.361h24.186
	l24.186,24.186v24.187l-79.361,79.361C173.78,469.724,163.627,469.724,157.366,463.462z"/>
<path style="fill:#96CA63;" d="M259.389,359.902L155.448,461.544l1.918,1.918c6.262,6.262,16.413,6.262,22.674,0l79.361-79.361
	v-24.187L259.389,359.902z"/>
<polygon style="fill:#E5E5E5;" points="380.847,238.468 356.662,262.655 332.476,238.468 356.662,214.282 386.894,196.143 
	398.988,208.236 "/>
<rect x="278.843" y="227.57" transform="matrix(-0.7619 0.6477 -0.6477 -0.7619 729.7471 375.0011)" style="fill:#999999;" width="34.205" height="188.126"/>
<path style="fill:#FFD791;" d="M418.993,434.47l-27.689,23.54c-6.747,5.736-16.865,4.916-22.601-1.83l-72.697-85.507l1.952-24.108
	l26.06-22.155l24.108,1.952l72.697,85.507C426.559,418.616,425.739,428.734,418.993,434.47z"/>
<path style="fill:#F8BE73;" d="M297.959,346.565l-1.952,24.107l72.696,85.507c5.736,6.747,15.855,7.566,22.601,1.83l3.812-3.241
	L298.703,345.93L297.959,346.565z"/>
<path style="fill:#B2B2B2;" d="M196.918,317.723l-14.659,12.462c-6.747,5.736-16.865,4.916-22.601-1.83l-62.312-73.292
	c-5.736-6.747-4.916-16.865,1.83-22.601l14.659-12.462c6.747-5.736,16.865-4.916,22.601,1.83l62.312,73.292
	C204.484,301.869,203.665,311.987,196.918,317.723z"/>
<polygon style="fill:#E5E5E5;" points="102.396,261.001 116.295,277.35 155.712,244.503 142.006,228.381 "/>
<path style="fill:#999999;" d="M198.748,295.123l-16.178-19.027l-38.559,33.856l15.647,18.404c5.736,6.747,15.854,7.566,22.601,1.83
	l14.659-12.462C203.665,311.987,204.484,301.869,198.748,295.123z"/>
<rect x="155.529" y="186.958" transform="matrix(-0.7619 0.6477 -0.6477 -0.7619 510.4406 263.2322)" style="fill:#E5E5E5;" width="102.614" height="76.96"/>
<path style="fill:#B2B2B2;" d="M339.909,197.035l-69.057,24.478l-49.849-58.634l3.257-2.77c26.985-22.943,67.46-19.665,90.403,7.321
	L339.909,197.035z"/>
<path d="M452.677,273.637c-4.428,0-8.017,3.589-8.017,8.017v214.313H213.245c-4.428,0-8.017,3.589-8.017,8.017
	c0,4.427,3.588,8.017,8.017,8.017h239.432c4.428,0,8.017-3.589,8.017-8.017V281.653
	C460.694,277.226,457.104,273.637,452.677,273.637z"/>
<path d="M508.829,189.755L260.846,1.631c-2.865-2.173-6.827-2.173-9.691,0l-98.303,74.574V50.24h9.086
	c4.428,0,8.017-3.589,8.017-8.017V8.018c0-4.427-3.588-8.017-8.017-8.017H42.223c-4.428,0-8.017,3.589-8.017,8.017v34.205
	c0,4.427,3.588,8.017,8.017,8.017h9.086V153.24L3.172,189.755c-2.742,2.08-3.851,5.68-2.752,8.942
	c1.097,3.263,4.156,5.461,7.598,5.461h43.29v299.824c0,4.427,3.588,8.017,8.017,8.017h102.614c4.428,0,8.017-3.589,8.017-8.017
	c0-4.427-3.588-8.017-8.017-8.017H67.341V196.142c0-4.427-3.588-8.017-8.017-8.017H31.849L256.001,18.081l224.151,170.046h-27.475
	c-4.428,0-8.017,3.589-8.017,8.017v42.756c0,4.427,3.588,8.017,8.017,8.017c4.428,0,8.017-3.589,8.017-8.017V204.16h43.29
	c3.443,0,6.501-2.198,7.598-5.461C512.679,195.436,511.571,191.837,508.829,189.755z M50.239,16.035h103.682v18.171H50.239
	C50.239,34.206,50.239,16.035,50.239,16.035z M67.342,50.24h69.478v38.129l-69.478,52.707C67.342,141.076,67.342,50.24,67.342,50.24
	z"/>
<path d="M240.885,330.059c-1.504-1.504-3.542-2.348-5.669-2.348h-24.186c-2.126,0-4.164,0.844-5.669,2.348L126,409.42
	c-9.27,9.271-9.272,24.741-0.001,34.012l25.697,25.698c9.27,9.243,24.746,9.266,34.013,0l79.361-79.362
	c1.503-1.503,2.347-3.542,2.347-5.668v-24.186c0-2.126-0.844-4.165-2.347-5.668l-6.424-6.424l14.382-14.382l16.388,19.276
	l-1.401,17.309c-0.171,2.12,0.507,4.22,1.883,5.839l72.697,85.508c8.477,9.971,23.924,11.228,33.9,2.745l27.689-23.539
	c9.986-8.489,11.24-23.908,2.745-33.901l-72.697-85.508c-1.377-1.62-3.341-2.626-5.46-2.798l-24.108-1.952
	c-0.057-0.004-0.113-0.002-0.171-0.005l-15.826-18.615l35.9-35.901l6.424,6.424c3.088,3.087,8.251,3.087,11.338,0l24.186-24.186
	c0.464-0.464,0.868-0.982,1.206-1.543l18.14-30.234c1.893-3.154,1.395-7.193-1.206-9.793l-12.092-12.092
	c-2.601-2.601-6.639-3.1-9.793-1.206l-30.233,18.14c-0.562,0.337-1.082,0.742-1.545,1.206L326.805,232.8
	c-3.086,3.086-3.086,8.251,0,11.337l6.424,6.424l-34.982,34.983l-37.901-44.579l14.573-12.39l67.666-23.985
	c5.202-1.844,7.009-8.55,3.422-12.758l-25.239-29.595c-12.484-14.683-29.936-23.626-49.147-25.182
	c-19.215-1.556-37.874,4.464-52.556,16.946l-75.329,64.044l-1.195-1.406c-4.16-4.894-9.978-7.876-16.381-8.394
	c-6.391-0.516-12.625,1.487-17.52,5.649l-14.658,12.462c-9.986,8.49-11.24,23.909-2.745,33.901l62.312,73.292
	c8.486,9.986,23.91,11.239,33.901,2.745l14.658-12.462c5.169-4.394,8.258-10.845,8.462-17.625c0.199-6.607-2.39-12.363-6.599-17.314
	l18.101-15.389l40.535,47.679l-15.3,15.3L240.885,330.059z M361.633,220.649l24.02-14.412l3.24,3.241l-14.411,24.02l-17.819,17.819
	l-12.849-12.849L361.633,220.649z M194.524,306.155c-0.173,2.135-1.167,4.074-2.797,5.46c0,0,0,0-0.001,0l-14.659,12.462
	c-3.33,2.831-8.472,2.411-11.299-0.915l-62.312-73.292c-2.831-3.331-2.412-8.471,0.915-11.3l14.659-12.462
	c3.331-2.833,8.47-2.412,11.299,0.915l62.312,73.292C194.028,301.946,194.696,304.021,194.524,306.155z M414.715,417.062
	c2.831,3.33,2.412,8.47-0.914,11.299c0,0,0,0-0.001,0l-27.689,23.54c-3.33,2.831-8.47,2.414-11.299-0.915l-70.546-82.978
	l1.415-17.488l20.999-17.854l17.487,1.416L414.715,417.062z M270.332,153.037c14.941,1.21,28.516,8.165,38.232,19.595l17.687,20.74
	l-52.868,18.739l-40.998-48.223C243.306,155.766,256.643,151.927,270.332,153.037z M220.087,174.179l39.465,46.419l-65.962,56.08
	l-39.465-46.419L220.087,174.179z M248.134,251.349l62.699,73.747l-13.844,11.771l-62.698-73.748L248.134,251.349z M241.638,353.487
	c0.001,0.001,0.002,0.002,0.002,0.003c0,0.001,0.002,0.001,0.003,0.002l9.743,9.743v13.606l-33.095-33.095h13.605L241.638,353.487z
	 M174.373,457.793c-3.129,3.126-8.213,3.124-11.339,0h0.001l-25.698-25.698c-3.089-3.09-3.088-8.248,0.001-11.337l67.645-67.646
	l37.035,37.035L174.373,457.793z"/>
</svg>